<svg xmlns="http://www.w3.org/2000/svg" width="104" height="104" viewBox="0 0 104 104">
    <defs>
        <filter id="prefix__a" width="144.2%" height="144.2%" x="-22.1%" y="-22.1%" filterUnits="objectBoundingBox">
            <feOffset dy="4" in="SourceAlpha" result="shadowOffsetOuter1"/>
            <feGaussianBlur in="shadowOffsetOuter1" result="shadowBlurOuter1" stdDeviation="4"/>
            <feColorMatrix in="shadowBlurOuter1" result="shadowMatrixOuter1" values="0 0 0 0 0 0 0 0 0 0 0 0 0 0 0 0 0 0 0.32 0"/>
            <feMerge>
                <feMergeNode in="shadowMatrixOuter1"/>
                <feMergeNode in="SourceGraphic"/>
            </feMerge>
        </filter>
    </defs>
    <g fill="none" fill-rule="evenodd" filter="url(#prefix__a)" transform="translate(0 -4)">
        <path d="M0 0L104 0 104 104 0 104z"/>
        <path fill="#FFF" fill-rule="nonzero" d="M43.333 71.5l26-19.5-26-19.5v39zM52 8.667C28.08 8.667 8.667 28.08 8.667 52 8.667 75.92 28.08 95.333 52 95.333c23.92 0 43.333-19.413 43.333-43.333C95.333 28.08 75.92 8.667 52 8.667zm0 78C32.89 86.667 17.333 71.11 17.333 52S32.89 17.333 52 17.333 86.667 32.89 86.667 52 71.11 86.667 52 86.667z"/>
    </g>
</svg>
