<svg xmlns="http://www.w3.org/2000/svg" width="359" height="616" viewBox="0 0 359 616">
    <g fill="none" fill-rule="evenodd">
        <text fill="#747474" font-family="AcuminProCond-Bold, Acumin Pro Condensed" font-size="32" font-style="condensed" font-weight="bold" transform="translate(0 -1)">
            <tspan x="0" y="586">FEWER LIMBS REMOVED </tspan> <tspan x="0" y="613">PER MINUTE</tspan>
        </text>
        <text fill="#FA284F" font-family="AcuminProCond-Black, Acumin Pro Condensed" font-size="100" font-style="condensed" font-weight="700" letter-spacing="-4.396" transform="translate(0 -1)">
            <tspan x=".293" y="74">40%</tspan>
        </text>
        <path fill="#0A0E18" d="M313.207 470.218c-3.136-.38-6.39-.888-9.664-1.088-.808-.05-2.365.852-2.41 1.41-.366 4.46-.65 8.95-.503 13.415.047 1.397 1.488 2.75 2.291 4.123 1.129-1.028 2.424-1.929 3.336-3.12.837-1.092 1.27-2.49 1.863-3.764 1.685-3.62 3.36-7.246 5.087-10.976m6.783.564c.608 2.042 1.485 4.45 2.023 6.932.65 2.998 2.036 4.259 5.626 4.26 2.46.002 2.533-2.093 2.993-3.778.074-.27.1-.557.194-.82.898-2.513 2.797-3.303 5.34-3.224 2.477.077 3.12 1.665 3.468 3.67.322 1.846.592 3.72 1.137 5.504.657 2.153 3.496 3.06 4.986 1.542.862-.877 1.527-2.233 1.684-3.45.492-3.79 2.71-5.654 6.305-6.095 1.767-.216 2.515-1.132 2.497-2.779-.012-1.181-.128-2.361-.174-3.142l-36.079 1.38m8.848-6.782c7.472.42 15.02.745 22.55 1.298 5.723.42 8.548 4.71 5.665 9.304-2.797 4.458-1.421 8.321.38 12.183 1.357 2.908 2.881 5.373-.382 7.948-.338.267-.23 1.42.017 2.023.53 1.295 1.707 2.456 1.841 3.751.166 1.599.058 3.785-.909 4.761-.753.76-3.04.242-4.57-.07-.822-.168-1.457-1.142-2.227-1.682-2.64-1.856-5.918-.862-6.76 2.245-1.003 3.703-3.086 6.313-6.903 7.013-4.018.737-7.077-.936-9.435-4.288-2.152-3.061-4.15-3.033-6.655-.248-.818.91-1.55 1.896-2.341 2.83-3.12 3.676-6.209 3.928-9.676.572-3.12-3.02-5.674-6.694-5.736-11.017-.065-4.516-1.783-8.408-3.25-12.39-2.544-6.9-1.163-13.732-.153-20.57.114-.772 1.925-1.429 3.056-1.882.938-.376 2.026-.465 3.057-.526 7.446-.439 14.893-.838 22.43-1.255M308.333 417.185c-1.916 10.819-3.845 21.819-5.83 32.808-.378 2.103.467 2.95 2.504 3.092 4.813.333 9.625 1.1 14.43 1.044 11.446-.136 22.888-.659 34.333-.996 2.202-.065 2.937-1.145 2.854-3.245-.407-10.228-.754-20.46-1.081-30.69-.056-1.77-.561-2.398-2.575-2.2-6.21.61-12.45 1.299-18.676 1.274-8.59-.034-17.177-.69-25.959-1.087M329.828 456c-7.834-.485-15.576-.95-23.316-1.455-1.031-.067-2.048-.346-3.075-.5-2.172-.328-2.706-1.506-2.323-3.609 1.781-9.787 3.444-19.595 5.149-29.396 1.249-7.172 1.23-7.341 8.521-8.122 12.463-1.334 24.948-1.191 37.394.28 4.479.529 4.59.853 4.732 5.262.337 10.322.698 20.644 1.059 30.965.15 4.302-.063 4.696-4.689 5.056-7.825.61-15.667 1.025-23.452 1.519M297.486 50.739c0 5.056.146 9.886-.06 14.701-.106 2.52-.526 5.12-1.357 7.487-.86 2.454-2.664 2.462-4.065.325-.466-.712-.869-1.466-1.323-2.186-3.24-5.14-6.64-10.143-11.598-13.804-2.023-1.493-4.45-2.033-6.14-.098-1.711 1.96.381 3.646 1.623 5.076 4.53 5.216 8.29 10.79 9.084 17.947.122 1.103.772 2.136 1.049 3.235.577 2.296 2.15 3.1 4.315 3.34 14.696 1.624 29.384 1.613 44.084.032 2.527-.272 3.853-1.307 4.156-3.998.805-7.155 1.825-14.286 2.718-21.431.44-3.521.791-7.054 1.206-10.796-1.526 0-2.718.26-3.739-.053-2.218-.678-3.512-.051-4.43 2.097-.671 1.568-1.731 2.966-2.617 4.44l-.757-.265c.067-.965.162-1.93.19-2.897.034-1.097.009-2.197.009-3.161-2.364-.17-4.544-.913-6.187-.265-1.36.536-2.084 2.716-3.333 4.518-.32-1.707-.583-3.119-.861-4.612-1.761.093-3.404.502-4.9.188-2.664-.558-4.345-.371-4.338 2.986.002.683-1.054 1.369-1.623 2.054-.67-.574-1.884-1.113-1.923-1.727-.205-3.284-2.235-3.373-4.663-3.154-1.297.116-2.614.02-4.52.02m-2.737 22.679c.453-2.105 1.186-4.194 1.306-6.318.329-5.777.478-11.57.523-17.357.014-1.803.68-2.673 2.32-2.908 1.294-.184 2.605-.426 3.902-.39 4.177.115 4.8.82 4.873 5.01.014.783.194 1.563.297 2.344l.824.023c.14-.829.333-1.654.41-2.488.391-4.263.892-4.992 5.086-5.135 2.315-.08 4.656.632 6.874.97 2.323-.292 4.706-.792 7.1-.847 3.973-.092 2.841 3.254 3.226 6.193.837-1.43 1.386-2.267 1.835-3.155 1.532-3.022 5.605-4.327 8.505-2.563.587.357 1.243 1.356 1.163 1.967-1.523 11.748-3.203 23.475-4.716 35.225-.311 2.422-1.409 3.66-3.72 3.763-10.487.468-20.972 1.101-31.464 1.245-5.13.07-10.271-.806-15.409-1.24-2.018-.17-3.265-1.26-3.87-3.179-.486-1.534-1.23-3.03-1.44-4.599-.853-6.418-4.188-11.492-8.24-16.219-.43-.502-.93-.956-1.293-1.504-1.199-1.81-2.846-3.764-1.04-5.887 1.726-2.03 4.41-2.192 6.473-.915a30.952 30.952 0 017.03 5.997c2.518 2.915 4.532 6.276 6.753 9.451.573.82 1.108 1.666 1.66 2.5l1.032.016M303.897 99.53l.001.25h11.28l-.001-.25h-11.28zm-17.455 2.467c1.524 1.916 3.02 3.923 4.646 5.813 2.88 3.347 5.854 6.61 8.76 9.933 4.07 4.655 6.1 10.189 6.27 16.393.08 2.846 1.308 4.326 3.965 4.379 6.357.126 12.733.437 19.07.09 5.388-.295 5.635-.76 3.721-6.021-2.143-5.892-2.086-11.653-.634-17.625.874-3.594 1.263-7.312 2.06-10.93.5-2.267-.039-2.894-2.314-2.615-4.03.493-8.095.955-12.146.958-10.977.01-21.955-.229-33.398-.375zM309.146 96c8.14.554 15.242.945 22.325 1.55 4.717.403 4.991.91 4.168 5.616-.981 5.615-1.8 11.27-3.046 16.821-1.031 4.593.56 8.629 1.722 12.81 1.653 5.94 1.468 6.74-4.5 7.064-6.965.377-13.98-.107-20.969-.343-2.277-.077-3.749-1.202-3.731-3.927.073-10.72-6.425-17.819-12.982-24.927-2.53-2.744-4.869-5.713-7.017-8.784-1.829-2.612-1.484-3.542 1.588-3.88 7.794-.858 15.62-1.411 22.442-2zM328.386 362.001l-.062.425h6.601l-.005-.425h-6.534zm-19.308 2.13c.146 2.938.455 6.189.437 9.437-.042 7.61-.148 15.224-.427 22.828-.091 2.49.649 3.712 3.102 3.866 4.401.276 8.8.883 13.197.876 8.09-.015 16.184-.27 24.268-.631 4.85-.217 5.018-.614 4.994-5.269-.05-9.855-.084-19.712-.073-29.568.002-1.753-.727-1.9-2.247-1.767-6.222.546-12.46 1.275-18.69 1.269-8.061-.007-16.122-.653-24.56-1.04zM331.735 403c-6.674-.51-13.285-.927-19.878-1.55-3.95-.374-3.923-.896-3.834-4.985.215-9.877.124-19.763.143-29.645.013-6.157.204-6.307 6.243-6.913 11.672-1.171 23.337-1.245 35.005-.004.275.03.553.028.827.06 5.328.626 5.35.875 5.353 6.374.007 10.143.264 20.286.402 30.43.05 3.68-.347 4.32-3.92 4.656-6.776.64-13.57 1.064-20.341 1.577zM313.203 204.293c4.144 1.772 6.533 1.558 7.551-.497l-7.55.497m20.642-.506l-.156 1.181c2.66.935 5.388.629 8.18-.68l-8.024-.501m-24.51 2.374v34.589c14.108-2.098 27.686-1.864 41.572-.067.037-12.014-2.27-23.314-4.572-34.621-12.695 1.861-24.948 1.837-37 .099m-.08 36.616c-.369-.866-1.05-1.73-1.06-2.6-.108-11.173-.076-22.346-.196-33.518-.024-2.257.913-3.372 3.063-3.533 5.672-.426 11.346-1.004 17.026-1.114 4.545-.09 9.108.336 13.65.686 4.26.328 5.165.978 5.718 4.763 1.599 10.93 3.041 21.88 4.499 32.83.4 3.009-2 3.426-4.046 3.577-7.006.518-14.025 1.045-21.045 1.129-4.633.055-9.282-.578-13.91-1.046-1.263-.128-2.472-.775-3.707-1.183.286-.013.58-.077.854-.03 10.749 1.802 21.564 1.728 32.389 1.025 2.58-.167 5.133-.764 7.7-1.164l.01-.947c-2.177-.348-4.35-.97-6.533-.996-9.112-.113-18.23-.192-27.337.053-2.376.065-4.717 1.346-7.074 2.068M313.674 256.172l.452-.787-4.344.964-.016.874 5.84 1.11-1.932-2.161m29.98.53c-9.306-1.528-18.566-1.595-27.811.19 2.36.402 5.083 1.179 7.005.241 4.098-2.002 8.377-1.87 12.066-.579 3.185 1.115 5.836.87 8.74.148m-30.665 30.532l2.337 5.88c11.804-1.807 23.683-1.88 35.67.023l-1.322-34.917c-13.496 1.812-26.77 1.872-40.229.04-1.275 5.949-.505 11.714.636 17.447.553 2.783 1.322 5.522 1.994 8.28-1.187-4.121-2.783-8.175-3.45-12.384-.677-4.26-.392-8.675-.616-13.016-.103-1.976.67-3.166 2.582-3.282 8.107-.492 16.215-1.053 24.331-1.292 3.582-.105 7.188.456 10.777.79 4.713.437 5.06.979 5.203 5.71.32 10.589.794 21.173 1.097 31.763.03 1.013-.71 2.048-1.093 3.073-.726-.55-1.394-1.458-2.188-1.595-10.12-1.75-20.265-1.686-30.405-.133-.815.125-1.603.435-2.403.66l.042.945c2.976.393 5.958 1.16 8.927 1.106 8.683-.157 17.362-.642 26.043-.998-2.208.577-4.411 1.624-6.625 1.65-7.945.092-15.894-.23-23.842-.253-4.328-.013-6.702-1.956-7.014-6.432-.071-1.028-.298-2.044-.452-3.065M328.632 309.297l-9.324.602.053.693c3.017.337 6.102 1.45 9.271-1.295m19.859 1.291l-.062-.795-9.471-.43c3.482 2.643 6.53 1.586 9.533 1.225m-39.446 36.613c6.192-.703 12.383-1.96 18.577-1.977 8.76-.023 17.52.872 26.28 1.362.264.015.536-.117 1.177-.268.543-11.65-.706-23.142-3.446-34.607-12.088 1.974-23.962 1.917-36.088.07-.301 6.877.23 13.753-3.033 19.99 1.448-6.837 2.614-13.697 2.297-20.751-.032-.704 1.235-1.873 2.101-2.13 1.864-.55 3.861-.901 5.8-.89 8.595.053 17.19.213 25.782.445 2.628.07 3.79 1.384 4.384 4.313 2.207 10.88 3.225 21.813 3.116 32.905-.025 2.543-.909 3.68-3.214 3.973-10.43 1.323-20.891 1.822-31.372.873-4.155-.377-8.272-1.17-12.406-1.773l.314-.322c14.915 2.416 29.81 2.357 44.686-.423-14.865-2.722-29.749-2.793-44.655-.372a9.198 9.198 0 01-.3-.418M310.578 150.764c2.058 1.161 4.093 2.018 5.817-.434l-5.817.434zm22.002.753l.082-.806-5.854-.376-.075.823c1.798 1.475 3.83.844 5.847.36zm-24.499 1.715c.42 11.387.846 22.882 1.28 34.614 12.052-2.205 23.893-1.966 36.226-.123l-8.544-34.491H308.08zM309.406 190c-.347-1.012-.955-2.012-1.003-3.038a2530.9 2530.9 0 01-1.402-34.781c-.026-.774.735-1.93 1.436-2.29 1.128-.582 2.511-.893 3.785-.891 7.074.009 14.15.065 21.22.285 2.358.074 3.767 1.49 4.37 4.029 2.633 11.098 5.456 22.15 8.112 33.243.252 1.054-.19 2.28-.311 3.427l-.35-.339c-.841-.473-1.637-1.217-2.533-1.377-9.495-1.695-19.038-1.576-28.568-.377-1.524.191-2.953 1.164-4.426 1.776l-.33.333zM323.577 22.976l.557.039c-.342 4.06-.449 8.157-1.118 12.167-.37 2.222.22 3.14 2.363 3.455 2.566.377 4.827-.707 4.937-2.574.475-8.062.894-16.128 1.25-24.195.096-2.16-.355-4.255-3.205-4.47-2.845-.216-3.689 1.833-3.927 3.934-.439 3.866-.588 7.761-.857 11.644m-3.727-.85c0-4.268.19-8.548-.082-12.8-.13-2.038-.73-4.269-1.847-5.973-1.5-2.289-3.77-1.922-4.785.632-.782 1.968-1.406 4.094-1.539 6.182-.53 8.414-.879 16.84-1.216 25.263-.113 2.826 1.001 3.704 4.348 3.783 3.65.087 5.089-.935 5.108-3.724.03-4.454.008-8.909.013-13.363m2.25 13.506c.235-3.95.551-7.896.681-11.85.123-3.712-.055-7.436.09-11.147.146-3.736 1.845-6.133 4.313-6.53 3.506-.565 5.913 1.862 5.813 6.256-.117 5.193-.503 10.38-.782 15.57-.11 2.039-.276 4.075-.366 6.114-.222 5.056-3.161 7.088-8.266 5.338-1.693-.58-2.815-.281-4.44.1-2.605.612-5.504.376-8.223.06-.769-.088-1.956-1.718-1.92-2.601.411-9.733.99-19.46 1.626-29.183.089-1.358.435-2.863 1.187-3.975.808-1.191 2.204-2.736 3.399-2.782 1.415-.055 3.633 1.007 4.178 2.16 1.03 2.18 1.483 4.767 1.527 7.195.144 8.08-.003 16.164-.023 24.246 0 .342.161.684.247 1.027l.959.002M304.846 21.28c.154-.02.308-.04.461-.058 0-2.346.025-4.692-.007-7.037-.025-1.784-.458-3.927-2.414-3.775-1.337.105-2.637 1.889-3.746 3.11-.409.45-.28 1.439-.303 2.184-.183 6.09-.367 12.18-.502 18.271-.096 4.323 2.194 5.884 6.452 4.562 1.479-.459 2.104-1.104 1.849-2.823-.713-4.794-1.208-9.621-1.79-14.435m1.38.2c.495 4.073 1.092 8.137 1.437 12.222.162 1.916 1.152 4.195-1.27 5.569-1.935 1.096-6.955.954-8.346-.401-.59-.575-1.057-1.606-1.047-2.422.095-7.123.275-14.245.527-21.364.038-1.085.435-2.217.904-3.215.911-1.937 2.442-3.127 4.689-2.82 2.218.302 3.212 2.015 3.372 3.952.231 2.792.06 5.616.06 8.427l-.325.053M343.024 27.593c-.104-1.054.008-1.981-.314-2.673-.478-1.03-1.262-1.892-1.915-2.825-.745.902-1.532 1.77-2.213 2.727-.234.328-.213.877-.29 1.328-.533 3.17-.993 6.358-1.623 9.506-.311 1.554-.753 2.99 1.287 3.347 1.835.321 3.547.034 3.936-2.32.507-3.077.783-6.198 1.132-9.09m.976 1.17c-.31 2.441-.488 5.501-1.177 8.42-.268 1.137-1.6 2.615-2.6 2.769-1.534.235-3.228-.443-4.788-.97-.305-.103-.518-1.328-.404-1.956.749-4.144 1.57-8.274 2.437-12.39.183-.875.445-1.985 1.032-2.443.882-.69 2.12-1.295 3.133-1.179.712.082 1.64 1.323 1.869 2.226.396 1.566.326 3.271.498 5.524" transform="translate(0 -1)"/>
        <path fill="#0A0E18" d="M346 189.436c-4.46.9-8.913 2.451-13.384 2.547-6.799.145-13.613-.668-20.414-1.206-1.084-.086-2.135-.864-3.202-1.322l.335-.427c12.104 2.955 24.207 2.925 36.308-.028l.357.436M312 334c-.76 3.776-1.546 7.546-2.257 11.333-.128.68.055 1.43.094 2.147.087.14.177.278.271.413l-.028.787-.284.32c-.278-.332-.811-.68-.796-.994.246-4.86-.024-9.869 3-14.006M328.065 362.124h6.93c0 .251.003.501.005.752h-7l.065-.752M348 310.408c-2.835.415-5.712 1.63-9-1.408l8.942.494.058.914M329 309c-3.059 3.043-6.037 1.809-8.949 1.435l-.051-.768 9-.667" transform="translate(0 -1)"/>
        <path fill="#000" fill-rule="nonzero" d="M85 486.419L77.509 478.914 47.813 508.614 47.813 117 37.188 117 37.188 508.614 7.544 478.861 0 486.419 42.5 529z" transform="translate(0 -1)"/>
    </g>
</svg>
