<svg xmlns="http://www.w3.org/2000/svg" xmlns:xlink="http://www.w3.org/1999/xlink" width="248" height="440" viewBox="0 0 248 440">
    <defs>
        <path id="prefix__a" d="M0 0L41 0 41 32 0 32z"/>
    </defs>
    <g fill="none" fill-rule="evenodd">
        <text fill="#747474" font-family="AcuminProCond-Bold, Acumin Pro Condensed" font-size="24" font-style="condensed" font-weight="bold" transform="translate(-1)">
            <tspan x="2" y="406">FEWER LIMBS REMOVED </tspan> <tspan x="2" y="433">PER MINUTE</tspan>
        </text>
        <text fill="#FA284F" font-family="AcuminProCond-Black, Acumin Pro Condensed" font-size="68.989" font-style="condensed" font-weight="700" letter-spacing="-3.032" transform="translate(-1)">
            <tspan x="1.342" y="51">40%</tspan>
        </text>
        <path fill="#000" d="M217.217 324.398c-2.163-.263-4.409-.613-6.667-.751-.558-.034-1.632.588-1.663.973-.252 3.077-.448 6.174-.347 9.255.033.964 1.027 1.896 1.581 2.844.778-.71 1.672-1.33 2.301-2.153.578-.753.877-1.718 1.286-2.596 1.162-2.498 2.317-5 3.51-7.572m4.679.388c.42 1.41 1.024 3.071 1.395 4.783.449 2.068 1.405 2.938 3.882 2.94 1.696 0 1.747-1.445 2.064-2.607.051-.187.069-.384.134-.566.62-1.734 1.93-2.28 3.684-2.224 1.71.053 2.153 1.148 2.393 2.531.222 1.274.408 2.566.784 3.798.454 1.485 2.412 2.11 3.44 1.064.594-.606 1.053-1.541 1.161-2.38.34-2.616 1.87-3.901 4.35-4.205 1.22-.15 1.735-.781 1.723-1.917-.008-.816-.089-1.63-.12-2.168l-24.89.951m6.103-4.678c5.155.29 10.362.514 15.558.895 3.948.29 5.896 3.25 3.908 6.42-1.93 3.075-.98 5.74.262 8.404.936 2.006 1.988 3.707-.263 5.483-.234.185-.159.98.011 1.396.366.893 1.178 1.694 1.27 2.588.115 1.103.04 2.61-.627 3.284-.52.524-2.097.167-3.153-.048-.567-.116-1.005-.788-1.536-1.16-1.822-1.28-4.083-.595-4.663 1.548-.693 2.555-2.13 4.355-4.763 4.838-2.772.51-4.882-.645-6.51-2.958-1.484-2.112-2.863-2.092-4.59-.17-.565.627-1.07 1.307-1.616 1.951-2.151 2.537-4.283 2.71-6.675.395-2.152-2.083-3.914-4.618-3.957-7.6-.044-3.116-1.23-5.8-2.242-8.548-1.755-4.76-.802-9.473-.106-14.191.079-.533 1.329-.986 2.108-1.298.648-.26 1.398-.321 2.11-.363 5.136-.303 10.274-.579 15.474-.866" transform="translate(-1)"/>
        <path fill="#0A0E18" d="M213.855 287.81c-1.323 7.465-2.653 15.053-4.022 22.635-.262 1.45.321 2.035 1.727 2.133 3.32.23 6.64.759 9.955.72 7.897-.094 15.79-.455 23.686-.687 1.519-.045 2.026-.79 1.969-2.239-.28-7.056-.52-14.115-.746-21.173-.039-1.22-.387-1.654-1.776-1.517-4.285.42-8.59.896-12.885.879-5.926-.023-11.85-.476-17.908-.75m14.828 26.778c-5.404-.335-10.745-.656-16.085-1.004-.711-.046-1.413-.239-2.122-.345-1.498-.226-1.866-1.04-1.602-2.49 1.229-6.752 2.376-13.518 3.552-20.28.862-4.948.85-5.064 5.88-5.603 8.597-.92 17.21-.822 25.797.193 3.09.365 3.166.589 3.264 3.63.233 7.122.481 14.243.73 21.363.104 2.968-.043 3.24-3.234 3.488-5.399.42-10.808.707-16.18 1.048M206.371 35.004c0 3.488.1 6.82-.04 10.142-.074 1.739-.364 3.533-.937 5.166-.594 1.692-1.838 1.698-2.805.223-.322-.49-.6-1.01-.912-1.507-2.236-3.546-4.582-6.998-8.001-9.523-1.396-1.031-3.071-1.403-4.236-.069-1.181 1.353.262 2.516 1.119 3.502 3.125 3.599 5.719 7.444 6.267 12.382.084.76.533 1.474.723 2.232.399 1.584 1.483 2.139 2.977 2.304 10.14 1.12 20.272 1.113 30.414.022 1.743-.187 2.658-.901 2.866-2.758.556-4.936 1.26-9.856 1.876-14.785.304-2.43.546-4.867.832-7.448-1.053 0-1.875.179-2.58-.036-1.53-.469-2.422-.036-3.056 1.446-.463 1.082-1.194 2.046-1.805 3.063l-.522-.183c.045-.666.111-1.331.13-1.998.024-.757.006-1.516.006-2.181-1.63-.118-3.134-.63-4.268-.183-.937.37-1.437 1.874-2.3 3.117-.22-1.178-.4-2.152-.593-3.182-1.215.064-2.349.346-3.38.13-1.838-.385-2.998-.256-2.993 2.06.001.471-.728.944-1.12 1.417-.463-.396-1.3-.768-1.326-1.191-.142-2.266-1.542-2.327-3.217-2.177-.895.081-1.804.015-3.119.015m-1.888 15.645c.313-1.452.818-2.893.901-4.358.227-3.986.33-7.982.361-11.975.01-1.243.47-1.844 1.6-2.006.893-.127 1.798-.294 2.692-.269 2.882.08 3.311.566 3.362 3.456.01.54.134 1.079.205 1.618l.568.016c.097-.572.23-1.141.283-1.717.27-2.94.616-3.444 3.51-3.543 1.596-.054 3.21.436 4.742.67 1.602-.202 3.246-.547 4.897-.584 2.741-.064 1.96 2.244 2.226 4.272.578-.987.956-1.564 1.266-2.177 1.057-2.085 3.867-2.985 5.867-1.768.406.246.858.935.803 1.357-1.05 8.105-2.21 16.195-3.253 24.302-.215 1.67-.972 2.524-2.567 2.596-7.235.322-14.468.76-21.707.858-3.538.049-7.086-.556-10.63-.855-1.392-.118-2.253-.87-2.67-2.193-.335-1.059-.849-2.09-.993-3.173-.589-4.428-2.89-7.929-5.685-11.19-.297-.346-.642-.66-.892-1.037-.827-1.249-1.964-2.596-.717-4.062 1.19-1.4 3.042-1.512 4.465-.63a21.353 21.353 0 014.85 4.137c1.737 2.01 3.127 4.33 4.659 6.52.395.565.764 1.15 1.145 1.725l.712.01M210.794 68.665v.172h7.782v-.172h-7.782zm-12.042 1.701c1.051 1.322 2.084 2.707 3.205 4.01 1.988 2.31 4.04 4.56 6.044 6.854 2.808 3.21 4.209 7.029 4.326 11.309.054 1.963.902 2.984 2.735 3.02 4.386.088 8.784.303 13.156.063 3.717-.204 3.888-.524 2.567-4.154-1.478-4.065-1.44-8.039-.437-12.16.603-2.479.87-5.043 1.421-7.54.345-1.564-.027-1.996-1.597-1.804-2.78.34-5.584.659-8.379.661-7.573.007-15.146-.158-23.041-.259zm15.664-4.137c5.616.382 10.514.652 15.401 1.07 3.254.277 3.443.627 2.876 3.874-.677 3.873-1.243 7.774-2.102 11.605-.711 3.168.386 5.952 1.188 8.837 1.14 4.097 1.013 4.65-3.105 4.873-4.805.26-9.644-.073-14.465-.236-1.572-.054-2.587-.83-2.575-2.71.05-7.396-4.432-12.292-8.956-17.196-1.746-1.894-3.359-3.942-4.841-6.06-1.261-1.803-1.024-2.444 1.096-2.678 5.377-.591 10.776-.972 15.483-1.379zM227.689 249.74l-.043.293h4.554a75.013 75.013 0 01-.004-.293h-4.507zm-13.32 1.47c.1 2.027.313 4.27.3 6.51-.028 5.25-.101 10.503-.294 15.749-.063 1.717.448 2.56 2.14 2.667 3.037.19 6.07.609 9.105.604 5.581-.01 11.165-.186 16.742-.435 3.347-.15 3.462-.424 3.445-3.635-.034-6.8-.058-13.599-.05-20.399.001-1.21-.502-1.311-1.55-1.219-4.293.377-8.596.88-12.895.876-5.56-.005-11.122-.451-16.943-.718zm15.63 26.815c-4.604-.352-9.165-.64-13.713-1.07-2.726-.257-2.707-.618-2.645-3.438.148-6.815.085-13.635.098-20.453.01-4.247.141-4.35 4.307-4.769 8.053-.808 16.1-.859 24.15-.002.19.02.38.02.57.041 3.676.432 3.69.604 3.693 4.397.005 6.998.182 13.996.278 20.994.034 2.538-.24 2.98-2.705 3.212-4.675.441-9.362.734-14.033 1.088zM217.214 140.94c2.859 1.222 4.507 1.074 5.21-.343l-5.21.343m14.241-.35l-.107.815c1.835.645 3.717.434 5.643-.47l-5.536-.345m-16.909 1.638v23.862c9.734-1.447 19.1-1.286 28.68-.046.026-8.288-1.565-16.084-3.154-23.884-8.758 1.284-17.211 1.267-25.526.068m-.054 25.261c-.255-.598-.726-1.194-.732-1.794-.075-7.708-.053-15.416-.135-23.124-.017-1.556.63-2.326 2.113-2.437 3.913-.294 7.827-.692 11.746-.768 3.135-.062 6.283.232 9.417.473 2.938.226 3.563.674 3.945 3.286 1.103 7.54 2.098 15.095 3.103 22.648.276 2.076-1.38 2.364-2.79 2.468-4.834.358-9.677.721-14.52.78-3.196.037-6.403-.4-9.596-.723-.871-.088-1.705-.534-2.557-.816.197-.008.4-.052.589-.02 7.415 1.243 14.877 1.192 22.344.707 1.78-.115 3.542-.527 5.312-.803l.008-.654c-1.502-.24-3.002-.668-4.507-.687-6.286-.077-12.577-.132-18.86.037-1.639.045-3.254.928-4.88 1.427M217.54 176.73l.31-.543-2.996.665-.01.603 4.028.766-1.333-1.491m20.682.365c-6.42-1.054-12.808-1.1-19.186.132 1.628.277 3.507.813 4.833.166 2.827-1.381 5.78-1.29 8.324-.4 2.198.77 4.026.6 6.03.102m-21.156 21.064l1.613 4.057c8.144-1.247 16.338-1.298 24.608.015l-.912-24.088c-9.31 1.25-18.468 1.291-27.753.027-.88 4.104-.349 8.081.438 12.037.382 1.92.912 3.81 1.376 5.713-.819-2.844-1.92-5.64-2.38-8.544-.467-2.94-.27-5.985-.425-8.98-.07-1.363.462-2.184 1.78-2.264 5.594-.34 11.188-.727 16.787-.892 2.471-.072 4.959.315 7.435.545 3.252.302 3.49.676 3.59 3.94.22 7.305.547 14.607.756 21.912.02.7-.49 1.414-.754 2.12-.501-.378-.962-1.005-1.51-1.1-6.981-1.206-13.98-1.163-20.976-.091-.562.086-1.105.3-1.657.455l.029.652c2.053.27 4.11.8 6.158.763 5.99-.109 11.978-.443 17.967-.689-1.523.399-3.043 1.12-4.57 1.138-5.482.064-10.965-.158-16.448-.174-2.986-.01-4.624-1.35-4.84-4.437-.049-.71-.205-1.41-.312-2.115M227.859 213.38l-6.433.415.037.478c2.08.233 4.21 1.001 6.396-.893m13.7.89l-.043-.548-6.534-.296c2.403 1.823 4.505 1.094 6.577.845m-27.213 25.259c4.271-.485 8.543-1.353 12.816-1.364 6.043-.016 12.086.601 18.13.94.182.01.37-.081.812-.186.374-8.036-.487-15.965-2.377-23.875-8.34 1.362-16.532 1.323-24.897.049-.208 4.744.158 9.488-2.092 13.791.998-4.717 1.803-9.45 1.584-14.316-.022-.486.852-1.292 1.45-1.469 1.285-.38 2.663-.622 4.001-.614 5.93.036 11.86.147 17.786.306 1.813.05 2.616.955 3.025 2.976a108.32 108.32 0 012.15 22.7c-.018 1.755-.627 2.54-2.217 2.742-7.196.912-14.413 1.256-21.644.602-2.866-.26-5.707-.807-8.558-1.223l.216-.222c10.29 1.666 20.565 1.625 30.828-.292-10.255-1.878-20.523-1.927-30.806-.257a6.346 6.346 0 01-.207-.288M215.404 104.01c1.42.801 2.823 1.393 4.013-.3l-4.013.3zm15.178.52l.057-.556-4.039-.26-.052.568c1.24 1.018 2.643.582 4.034.248zm-16.901 1.183l.882 23.88c8.315-1.522 16.484-1.357 24.992-.085l-5.894-23.795h-19.98zm.914 25.366c-.24-.699-.659-1.388-.692-2.096-.372-7.997-.705-15.995-.968-23.996-.017-.533.508-1.33.991-1.58.778-.4 1.733-.615 2.612-.614 4.88.006 9.762.045 14.64.197 1.626.05 2.598 1.028 3.013 2.78 1.817 7.656 3.765 15.28 5.597 22.933.174.728-.132 1.573-.215 2.365l-.24-.234c-.581-.326-1.13-.84-1.748-.95-6.551-1.17-13.135-1.088-19.71-.26-1.05.132-2.036.802-3.053 1.225l-.227.23zM224.371 15.851l.384.027c-.235 2.8-.31 5.627-.771 8.394-.256 1.532.152 2.166 1.63 2.383 1.77.26 3.33-.487 3.406-1.776.328-5.562.617-11.126.863-16.692.066-1.49-.245-2.935-2.211-3.084-1.963-.148-2.545 1.266-2.71 2.715-.302 2.667-.405 5.354-.59 8.033m-2.572-.586c0-2.945.131-5.898-.057-8.831-.09-1.406-.503-2.945-1.274-4.12-1.035-1.58-2.6-1.327-3.3.435-.54 1.358-.971 2.825-1.062 4.265-.367 5.805-.607 11.618-.84 17.429-.078 1.95.691 2.555 3 2.61 2.518.06 3.51-.645 3.524-2.57.02-3.072.005-6.146.009-9.218m1.552 9.317c.162-2.724.38-5.448.47-8.175.085-2.561-.038-5.13.062-7.69.1-2.577 1.273-4.231 2.975-4.506 2.42-.39 4.08 1.286 4.01 4.317-.08 3.582-.346 7.16-.539 10.74-.075 1.408-.19 2.812-.252 4.22-.153 3.488-2.18 4.89-5.703 3.682-1.168-.4-1.942-.194-3.063.07-1.797.421-3.797.258-5.673.04-.53-.06-1.35-1.185-1.324-1.794.283-6.715.683-13.425 1.121-20.133.061-.937.3-1.976.82-2.742.556-.822 1.52-1.888 2.344-1.92.976-.037 2.507.695 2.882 1.49.712 1.505 1.024 3.289 1.054 4.964.1 5.574-.002 11.151-.016 16.727 0 .236.111.472.17.709l.662.001M211.45 14.68l.317-.04c0-1.618.017-3.236-.005-4.854-.018-1.23-.316-2.709-1.665-2.604-.923.072-1.82 1.303-2.585 2.145-.282.31-.193.993-.209 1.507-.126 4.202-.253 8.403-.346 12.605-.066 2.982 1.513 4.06 4.451 3.147 1.02-.316 1.452-.761 1.275-1.947-.49-3.308-.833-6.638-1.234-9.959m.952.139c.341 2.81.753 5.613.991 8.431.112 1.322.795 2.894-.876 3.842-1.335.756-4.798.658-5.758-.277-.407-.397-.73-1.107-.722-1.67.065-4.914.19-9.828.363-14.74.027-.748.3-1.529.624-2.217.629-1.337 1.685-2.157 3.235-1.946 1.53.208 2.216 1.39 2.327 2.727.159 1.926.04 3.874.04 5.813l-.224.037M237.788 19.036c-.073-.727.005-1.367-.217-1.844-.33-.71-.87-1.305-1.321-1.95-.514.623-1.057 1.222-1.527 1.882-.162.227-.147.605-.2.917-.368 2.187-.685 4.386-1.12 6.558-.214 1.072-.52 2.062.888 2.309 1.266.221 2.447.023 2.715-1.6.35-2.123.54-4.277.782-6.272m.673.808c-.214 1.683-.337 3.794-.812 5.808-.185.785-1.104 1.804-1.794 1.91-1.058.163-2.227-.305-3.303-.669-.21-.07-.357-.916-.279-1.35a303.003 303.003 0 011.681-8.548c.127-.602.308-1.368.712-1.685.608-.475 1.463-.893 2.162-.812.491.056 1.131.912 1.29 1.535.272 1.08.224 2.257.343 3.81" transform="translate(-1)"/>
        <path fill="#0A0E18" d="M239.84 130.69c-3.077.62-6.148 1.69-9.233 1.757-4.69.1-9.391-.461-14.083-.833-.748-.059-1.473-.596-2.21-.911l.232-.295c8.35 2.039 16.7 2.018 25.048-.02l.246.302M216.384 230.422c-.524 2.605-1.066 5.206-1.557 7.819-.088.469.038.987.065 1.481.06.097.122.192.187.285l-.02.543-.195.22c-.192-.228-.56-.468-.55-.685.17-3.352-.016-6.808 2.07-9.663M227.467 249.825h4.78l.005.519h-4.83l.045-.52M241.22 214.147c-1.956.286-3.94 1.124-6.209-.972l6.17.341c.012.21.026.42.04.63M228.112 213.175c-2.11 2.1-4.165 1.248-6.173.99l-.036-.53 6.21-.46" transform="translate(-1)"/>
        <path fill="#000" fill-rule="nonzero" d="M59.78 335.574L54.612 330.397 34.125 350.887 34.125 80.717 26.795 80.717 26.795 350.887 6.344 330.36 1.139 335.574 30.46 364.951z" transform="translate(-1)"/>
        <g transform="translate(-1) translate(208 323)">
            <mask id="prefix__b" fill="#fff">
                <use xlink:href="#prefix__a"/>
            </mask>
            <path fill="#FA284F" d="M12.958.343c.556 1.864 1.278 3.907 1.76 6.006.453 1.973 1.505 2.896 4.341 2.944 1.647.029 1.746-1.48 2.219-2.692.41-1.054 1.064-2.288 1.965-2.81 2.059-1.198 3.651-.167 3.99 2.227.182 1.278.461 2.541.657 3.817.234 1.53 1.447 2.195 2.585 2.039.896-.124 1.714-1.18 2.456-1.935.286-.292.296-.888.384-1.354.57-3.022 1.927-4.16 5.31-4.307-.42 3.532.228 6.792 2.039 9.898.435.746.059 2.53-.583 3.238-.816.9-.932 1.494-.43 2.435.445.836 1.14 1.64 1.26 2.524.148 1.095.166 2.496-.389 3.334-.834 1.258-2.173.598-3.23-.09-.502-.328-.893-.829-1.377-1.193-2.168-1.634-4.846-.66-5.416 2.038-.565 2.671-2.253 4.215-4.723 4.704-2.427.48-4.472-.506-5.957-2.567-2.19-3.04-3.677-3.078-5.959-.157-.376.482-.75.966-1.147 1.43-2.38 2.785-4.476 2.844-6.925.131-2.55-2.823-3.765-6.125-3.974-10.012C1.698 17.84.637 15.743.01 13.618c-.031-.109.017-.242.045-.545 1.4 1.418 2.417.553 3.12-.613.977-1.619 1.757-3.362 2.59-5.068C6.942 4.983 8.091 2.56 9.321 0" mask="url(#prefix__b)"/>
        </g>
    </g>
</svg>
