<svg xmlns="http://www.w3.org/2000/svg" width="715" height="289" viewBox="0 0 715 289">
    <g fill="none" fill-rule="evenodd">
        <g>
            <path fill="#0A0E18" d="M61 44H706V45H61zM61 120H706V121H61zM61 82H706V83H61zM61 11H706V12H61z" opacity=".2" transform="translate(-9) translate(0 96)"/>
            <text fill="#24314D" font-family="AcuminPro-Semibold, Acumin Pro" font-size="16" font-weight="500" transform="translate(-9) translate(0 96)">
                <tspan x="439.28" y="192">2016</tspan>
            </text>
            <text fill="#24314D" font-family="AcuminPro-Semibold, Acumin Pro" font-size="16" font-weight="500" transform="translate(-9) translate(0 96)">
                <tspan x="564.312" y="192">2018</tspan>
            </text>
            <text fill="#24314D" font-family="AcuminPro-Semibold, Acumin Pro" font-size="16" font-weight="500" transform="translate(-9) translate(0 96)">
                <tspan x="687.896" y="192">2020</tspan>
            </text>
            <text fill="#24314D" font-family="AcuminPro-Semibold, Acumin Pro" font-size="16" font-weight="500" transform="translate(-9) translate(0 96)">
                <tspan x="314.352" y="192">2014</tspan>
            </text>
            <text fill="#24314D" font-family="AcuminPro-Semibold, Acumin Pro" font-size="16" font-weight="500" transform="translate(-9) translate(0 96)">
                <tspan x="189.472" y="192">2012</tspan>
            </text>
            <text fill="#24314D" font-family="AcuminPro-Semibold, Acumin Pro" font-size="16" font-weight="500" transform="translate(-9) translate(0 96)">
                <tspan x="64.184" y="192">2010</tspan>
            </text>
            <text fill="#24314D" font-family="AcuminPro-Semibold, Acumin Pro" font-size="14" font-weight="500" transform="translate(-9) translate(0 96)">
                <tspan x="16.063" y="162">0%</tspan>
            </text>
            <text fill="#24314D" font-family="AcuminPro-Semibold, Acumin Pro" font-size="14" font-weight="500" transform="translate(-9) translate(0 96)">
                <tspan x="12.514" y="124">25%</tspan>
            </text>
            <text fill="#24314D" font-family="AcuminPro-Semibold, Acumin Pro" font-size="14" font-weight="500" transform="translate(-9) translate(0 96)">
                <tspan x="12.066" y="86">50%</tspan>
            </text>
            <text fill="#24314D" font-family="AcuminPro-Semibold, Acumin Pro" font-size="14" font-weight="500" transform="translate(-9) translate(0 96)">
                <tspan x="12.829" y="48">75%</tspan>
            </text>
            <text fill="#24314D" font-family="AcuminPro-Semibold, Acumin Pro" font-size="14" font-weight="500" transform="translate(-9) translate(0 96)">
                <tspan x="9.245" y="10">100%</tspan>
            </text>
            <path fill="#D8D8D8" stroke="#979797" d="M80.5 11.5H81.5V171.5H80.5z" transform="translate(-9) translate(0 96)"/>
            <path fill="#0A0E18" d="M143 11H144V156H143zM268 11H269V156H268zM393 11H394V156H393zM518 11H519V156H518zM643 11H644V156H643z" opacity=".2" transform="translate(-9) translate(0 96)"/>
            <path fill="#D8D8D8" stroke="#979797" d="M205.5 11.5H206.5V171.5H205.5zM330.5 11.5H331.5V171.5H330.5zM455.5 11.5H456.5V171.5H455.5zM580.5 11.5H581.5V171.5H580.5z" transform="translate(-9) translate(0 96)"/>
            <path stroke="#FA284F" stroke-width="2" d="M81 62.14L134.457 73.181 181.731 73.181 219.73 73.181 265.073 73.181 288.549 81.323 315.156 81.323 349.98 81.323 378.152 91.868 437.735 101.117 456.893 110.365 502.206 120.927 550.041 120.927 563.637 132.189 613.715 142.075 671.594 144.48 688.316 144.48 705 147.36" transform="translate(-9) translate(0 96)"/>
            <path stroke="#C5A95D" stroke-width="2" d="M81 104.75L99.118 104.75 112.686 104.75 132.744 114 170.204 120 193.801 114 212.679 114 263.829 114 297.843 112.375 321.642 104.75 340.224 112.375 369.356 121 403.052 128 429.91 128 450.541 128 479.447 140.684 503.339 140.684 530.302 140.684 555.669 140.684 571.597 147.36 617.812 147.36 680.779 152 705 154.602" transform="translate(-9) translate(0 96)"/>
            <path stroke="#39B54A" stroke-width="2" d="M81 156l25.445-10.49h13.66L143 138.751h77.107l23.904-5.155 33.663-7.996 24.358 7.996L369 138.75 404.049 118l20.488-7.6c17.82-5.456 28.307-8.185 31.463-8.185 3.156 0 11.715-1.835 25.678-5.507L518 84.343l25.424-15.2L561 60.046h46.399l23.448-16.96 20.261-7.6 40.814-7.6L705 21" transform="translate(-9) translate(0 96)"/>
            <path fill="#0A0E18" d="M61 156H706V157H61z" opacity=".2" transform="translate(-9) translate(0 96)"/>
            <path fill="#D8D8D8" stroke="#979797" d="M705.5 11.5H706.5V171.5H705.5z" transform="translate(-9) translate(0 96)"/>
        </g>
        <g transform="translate(-9) translate(262)">
            <text fill="#FA284F" font-family="AcuminPro-Semibold, Acumin Pro" font-size="16" font-weight="500">
                <tspan x=".236" y="60">Brains</tspan>
            </text>
            <rect width="40" height="40" x="2.5" fill="#FA284F" rx="20"/>
            <path fill="#000" fill-rule="nonzero" d="M31.83 21.477c.09 1.624-.62 3.185-1.89 4.138l.77 1.561c.23.472.26 1.027.06 1.52-.19.492-.58.88-1.06 1.047l-.79.262c-.17.063-.36.094-.54.094-.51 0-.99-.24-1.32-.67l-2.12-2.62a5.202 5.202 0 01-2.44-1.152c-.5.157-1 .241-1.5.241-.88 0-1.76-.283-2.5-.828-.53.168-1.07.241-1.62.231-.79.01-1.57-.157-2.3-.471-1.43-.671-2.38-2.138-2.43-3.782a4.3 4.3 0 01.35-2.21 3.782 3.782 0 01-.07-2.442 4.634 4.634 0 011.94-2.346c.58-1.771 2.21-2.955 4-2.829 1.6-1.571 4.05-1.74 5.83-.388.42-.115.86-.178 1.3-.178 1.36-.031 2.65.597 3.5 1.718 2.04.556 3.5 2.462 3.58 4.683a5.71 5.71 0 01-.86 3.28c.07.376.11.754.11 1.141m-5-1.477c.57.073 1.02.524 1.02 1.121 0 .579-.448 1.048-1 1.048h-.63a5.43 5.43 0 01-1.62 2.399c.25.094.51.146.77.22 5.13-.074 4.53-3.353 4.53-3.405-.06-1.498-1.26-2.672-2.69-2.609-.552 0-1-.469-1-1.047 0-.579.448-1.048 1-1.048 1.23.031 2.41.513 3.33 1.362.05-.304.08-.618.08-.932-.06-1.3-.62-2.43-2.87-2.65-1.25-3.102-4.4-1.384-4.4-.42-.03.241.21.754.25.786.552 0 1 .469 1 1.047 0 .577-.45 1.048-1 1.048a2.283 2.283 0 01-1.43-.587c-.48.325-1.03.524-1.6.587-.57.052-1.04-.367-1.07-.943-.08-.587.33-1.1.88-1.152.16-.021.94-.147.94-.807 0-.691.25-1.351.68-1.875-.92-.262-1.91.084-2.91 1.351-1.84-.304-2.59-.042-3.14 2.001-.95.493-1.45.838-1.67 1.886a5.636 5.636 0 013.22.262c.5.199.78.786.59 1.351a.991.991 0 01-1.29.618 2.924 2.924 0 00-2.3-.062c-.32.282-.32.869-.32 1.33 0 .775.37 1.498 1 1.917.53.283 1.12.43 1.71.42a6.455 6.455 0 01-.39-.85c-.19-.565.1-1.183.64-1.382.54-.2 1.13.105 1.32.67.4 1.195 1.42 2.012 2.62 2.148 1.37-.073 2.59-.922 3.19-2.232C24.5 20.126 25.61 20 26.83 20m2 7.826l-.62-1.362-.71.167 1 1.31.33-.115m-4.65-9.02c.02-.556-.38-1.027-.91-1.08a2.6 2.6 0 00-1.93.703 3.2 3.2 0 00-.84 2.294c0 .578.448 1.047 1 1.047.57 0 1-.471 1-1.047 0-.283.07-.566.23-.796a.644.644 0 01.43-.157.96.96 0 001.02-.964z"/>
            <text fill="#C5A95D" font-family="AcuminPro-Semibold, Acumin Pro" font-size="16" font-weight="500">
                <tspan x="79.288" y="60">Flesh</tspan>
            </text>
            <rect width="40" height="40" x="79" fill="#C5A95D" rx="20"/>
            <path d="M85 8L109 8 109 32 85 32z"/>
            <path fill="#000" fill-rule="nonzero" d="M103 32h-6.55c-1.08 0-2.14-.45-2.89-1.23l-7.3-7.61 2.07-1.83c.62-.55 1.53-.66 2.26-.27L93 22.34v-9.55a2.5 2.5 0 013.01-2.45c.09-1.3 1.17-2.33 2.49-2.33.86 0 1.61.43 2.06 1.09.29-.12.61-.18.94-.18a2.5 2.5 0 012.5 2.5v.28a2.5 2.5 0 013 2.45V28c0 2.21-1.79 4-4 4zm-13.86-8.72l5.86 6.1c.38.39.9.62 1.44.62H103c1.1 0 2-.9 2-2V14.15c0-.28-.22-.5-.5-.5s-.5.22-.5.5V20h-2v-8.58c0-.28-.22-.5-.5-.5s-.5.22-.5.5V20h-2v-9.49c0-.28-.22-.5-.5-.5s-.5.22-.5.5V20h-2v-7.21c0-.28-.22-.5-.5-.5s-.5.23-.5.5v12.87l-5.35-2.83-.51.45z"/>
            <text fill="#45DC5A" font-family="AcuminPro-Semibold, Acumin Pro" font-size="16" font-weight="500">
                <tspan x="151.592" y="60">Plastic</tspan>
            </text>
            <rect width="40" height="40" x="156" fill="#39B54A" rx="20"/>
            <path fill="#000" fill-rule="nonzero" d="M180.64 22.89c-.91.768-1.43 1.862-1.43 3.01 0 1.148.52 2.242 1.43 3.01v2.39c0 1.491-1.29 2.7-2.88 2.7h-2.88c-1.59 0-2.88-1.209-2.88-2.7v-2.39c.91-.768 1.43-1.862 1.43-3.01 0-1.148-.52-2.242-1.43-3.01v-6.44a15.971 15.971 0 002.75-6.75h-1.31V7h5.76v2.7h-1.31a15.971 15.971 0 002.75 6.75v6.44z"/>
        </g>
    </g>
</svg>
