<svg xmlns="http://www.w3.org/2000/svg" width="298" height="260" viewBox="0 0 298 260">
    <g fill="none" fill-rule="evenodd">
        <g transform="translate(-7) translate(49)">
            <text fill="#FA284F" font-family="AcuminPro-Semibold, Acumin Pro" font-size="16" font-weight="500">
                <tspan x=".236" y="60">Brains</tspan>
            </text>
            <rect width="40" height="40" x="2.5" fill="#FA284F" rx="20"/>
            <path fill="#000" fill-rule="nonzero" d="M31.83 21.477c.09 1.624-.62 3.185-1.89 4.138l.77 1.561c.23.472.26 1.027.06 1.52-.19.492-.58.88-1.06 1.047l-.79.262c-.17.063-.36.094-.54.094-.51 0-.99-.24-1.32-.67l-2.12-2.62a5.202 5.202 0 01-2.44-1.152c-.5.157-1 .241-1.5.241-.88 0-1.76-.283-2.5-.828-.53.168-1.07.241-1.62.231-.79.01-1.57-.157-2.3-.471-1.43-.671-2.38-2.138-2.43-3.782a4.3 4.3 0 01.35-2.21 3.782 3.782 0 01-.07-2.442 4.634 4.634 0 011.94-2.346c.58-1.771 2.21-2.955 4-2.829 1.6-1.571 4.05-1.74 5.83-.388.42-.115.86-.178 1.3-.178 1.36-.031 2.65.597 3.5 1.718 2.04.556 3.5 2.462 3.58 4.683a5.71 5.71 0 01-.86 3.28c.07.376.11.754.11 1.141m-5-1.477c.57.073 1.02.524 1.02 1.121 0 .579-.448 1.048-1 1.048h-.63a5.43 5.43 0 01-1.62 2.399c.25.094.51.146.77.22 5.13-.074 4.53-3.353 4.53-3.405-.06-1.498-1.26-2.672-2.69-2.609-.552 0-1-.469-1-1.047 0-.579.448-1.048 1-1.048 1.23.031 2.41.513 3.33 1.362.05-.304.08-.618.08-.932-.06-1.3-.62-2.43-2.87-2.65-1.25-3.102-4.4-1.384-4.4-.42-.03.241.21.754.25.786.552 0 1 .469 1 1.047 0 .577-.45 1.048-1 1.048a2.283 2.283 0 01-1.43-.587c-.48.325-1.03.524-1.6.587-.57.052-1.04-.367-1.07-.943-.08-.587.33-1.1.88-1.152.16-.021.94-.147.94-.807 0-.691.25-1.351.68-1.875-.92-.262-1.91.084-2.91 1.351-1.84-.304-2.59-.042-3.14 2.001-.95.493-1.45.838-1.67 1.886a5.636 5.636 0 013.22.262c.5.199.78.786.59 1.351a.991.991 0 01-1.29.618 2.924 2.924 0 00-2.3-.062c-.32.282-.32.869-.32 1.33 0 .775.37 1.498 1 1.917.53.283 1.12.43 1.71.42a6.455 6.455 0 01-.39-.85c-.19-.565.1-1.183.64-1.382.54-.2 1.13.105 1.32.67.4 1.195 1.42 2.012 2.62 2.148 1.37-.073 2.59-.922 3.19-2.232C24.5 20.126 25.61 20 26.83 20m2 7.826l-.62-1.362-.71.167 1 1.31.33-.115m-4.65-9.02c.02-.556-.38-1.027-.91-1.08a2.6 2.6 0 00-1.93.703 3.2 3.2 0 00-.84 2.294c0 .578.448 1.047 1 1.047.57 0 1-.471 1-1.047 0-.283.07-.566.23-.796a.644.644 0 01.43-.157.96.96 0 001.02-.964z"/>
            <text fill="#C5A95D" font-family="AcuminPro-Semibold, Acumin Pro" font-size="16" font-weight="500">
                <tspan x="79.288" y="60">Flesh</tspan>
            </text>
            <rect width="40" height="40" x="79" fill="#C5A95D" rx="20"/>
            <path d="M85 8L109 8 109 32 85 32z"/>
            <path fill="#000" fill-rule="nonzero" d="M103 32h-6.55c-1.08 0-2.14-.45-2.89-1.23l-7.3-7.61 2.07-1.83c.62-.55 1.53-.66 2.26-.27L93 22.34v-9.55a2.5 2.5 0 013.01-2.45c.09-1.3 1.17-2.33 2.49-2.33.86 0 1.61.43 2.06 1.09.29-.12.61-.18.94-.18a2.5 2.5 0 012.5 2.5v.28a2.5 2.5 0 013 2.45V28c0 2.21-1.79 4-4 4zm-13.86-8.72l5.86 6.1c.38.39.9.62 1.44.62H103c1.1 0 2-.9 2-2V14.15c0-.28-.22-.5-.5-.5s-.5.22-.5.5V20h-2v-8.58c0-.28-.22-.5-.5-.5s-.5.22-.5.5V20h-2v-9.49c0-.28-.22-.5-.5-.5s-.5.22-.5.5V20h-2v-7.21c0-.28-.22-.5-.5-.5s-.5.23-.5.5v12.87l-5.35-2.83-.51.45z"/>
            <text fill="#45DC5A" font-family="AcuminPro-Semibold, Acumin Pro" font-size="16" font-weight="500">
                <tspan x="151.592" y="60">Plastic</tspan>
            </text>
            <rect width="40" height="40" x="156" fill="#39B54A" rx="20"/>
            <path fill="#000" fill-rule="nonzero" d="M180.64 22.89c-.91.768-1.43 1.862-1.43 3.01 0 1.148.52 2.242 1.43 3.01v2.39c0 1.491-1.29 2.7-2.88 2.7h-2.88c-1.59 0-2.88-1.209-2.88-2.7v-2.39c.91-.768 1.43-1.862 1.43-3.01 0-1.148-.52-2.242-1.43-3.01v-6.44a15.971 15.971 0 002.75-6.75h-1.31V7h5.76v2.7h-1.31a15.971 15.971 0 002.75 6.75v6.44z"/>
        </g>
        <g>
            <path fill="#0A0E18" d="M46.469 33.519H292.526V34.519H46.469zM46.469 91.414H292.526V92.414H46.469zM46.469 62.467H292.526V63.467H46.469zM46.469 8.38H292.526V9.38H46.469z" opacity=".2" transform="translate(-7) translate(0 112)"/>
            <text fill="#24314D" font-family="AcuminPro-Semibold, Acumin Pro" font-size="12.189" font-weight="500" transform="translate(-7) translate(0 112)">
                <tspan x="277.973" y="146.122">2020</tspan>
            </text>
            <text fill="#293759" font-family="AcuminPro-Semibold, Acumin Pro" font-size="12.189" font-weight="500" transform="translate(-7) translate(0 112)">
                <tspan x="160.535" y="146.122">2015</tspan>
            </text>
            <text fill="#24314D" font-family="AcuminPro-Semibold, Acumin Pro" font-size="12.189" font-weight="500" transform="translate(-7) translate(0 112)">
                <tspan x="48.895" y="146.122">2010</tspan>
            </text>
            <text fill="#24314D" font-family="AcuminPro-Semibold, Acumin Pro" font-size="10.665" font-weight="500" transform="translate(-7) translate(0 112)">
                <tspan x="12.237" y="123.792">0%</tspan>
            </text>
            <text fill="#24314D" font-family="AcuminPro-Semibold, Acumin Pro" font-size="10.665" font-weight="500" transform="translate(-7) translate(0 112)">
                <tspan x="9.533" y="94.844">25%</tspan>
            </text>
            <text fill="#24314D" font-family="AcuminPro-Semibold, Acumin Pro" font-size="10.665" font-weight="500" transform="translate(-7) translate(0 112)">
                <tspan x="9.192" y="65.896">50%</tspan>
            </text>
            <text fill="#24314D" font-family="AcuminPro-Semibold, Acumin Pro" font-size="10.665" font-weight="500" transform="translate(-7) translate(0 112)">
                <tspan x="9.773" y="36.948">75%</tspan>
            </text>
            <text fill="#24314D" font-family="AcuminPro-Semibold, Acumin Pro" font-size="10.665" font-weight="500" transform="translate(-7) translate(0 112)">
                <tspan x="7.043" y="8">100%</tspan>
            </text>
            <path fill="#0A0E18" d="M77.702 8.38H78.702V118.839H77.702zM125.695 8.38H126.695V118.839H125.695z" opacity=".2" transform="translate(-7) translate(0 112)"/>
            <path fill="#D8D8D8" stroke="#979797" stroke-width=".762" d="M173.306 8.761H174.306V130.649H173.306z" transform="translate(-7) translate(0 112)"/>
            <path fill="#0A0E18" d="M220.918 8.38H221.918V118.839H220.918zM268.149 8.38H269.149V118.839H268.149zM101.318 8.38H102.318V119.601H101.318zM149.31 8.38H150.31V119.601H149.31zM196.541 8.38H197.541V119.601H196.541zM244.533 8.38H245.533V119.601H244.533z" opacity=".2" transform="translate(-7) translate(0 112)"/>
            <path stroke="#FA284F" stroke-width="1.524" d="M54.087 47.337L74.448 55.748 92.455 55.748 106.928 55.748 124.199 55.748 133.141 61.951 143.275 61.951 156.539 61.951 167.27 69.984 189.965 77.029 197.262 84.075 214.522 92.121 232.741 92.121 237.92 100.7 256.994 108.231 279.04 110.063 285.409 110.063 291.764 112.257" transform="translate(-7) translate(0 112)"/>
            <path stroke="#C5A95D" stroke-width="1.524" d="M54.087 79.797L60.988 79.797 66.156 79.797 73.796 86.844 88.064 91.414 97.052 86.844 104.243 86.844 123.725 86.844 136.681 85.606 145.746 79.797 152.824 85.606 163.92 92.176 176.754 97.509 186.984 97.509 194.842 97.509 205.853 107.171 214.953 107.171 225.223 107.171 234.885 107.171 240.952 112.257 258.555 112.257 282.539 115.792 291.764 117.774" transform="translate(-7) translate(0 112)"/>
            <path stroke="#39B54A" stroke-width="1.524" d="M54.087 118.839l9.692-7.991h5.202l8.721-5.15h29.369l9.105-3.927L129 95.681l9.278 6.09 25.507 3.928 13.35-15.808 7.804-5.79c6.787-4.156 10.782-6.235 11.984-6.235s4.462-1.398 9.78-4.195l13.835-9.42 9.684-11.579 6.695-6.93H254.589l8.931-12.92 7.717-5.79 15.546-5.79 4.981-5.244" transform="translate(-7) translate(0 112)"/>
            <path fill="#0A0E18" d="M46.469 118.839H292.526V119.839H46.469z" opacity=".2" transform="translate(-7) translate(0 112)"/>
            <path fill="#D8D8D8" stroke="#979797" stroke-width=".762" d="M54.468 8.761H55.468V130.647H54.468zM292.145 8.761H293.145V130.647H292.145z" transform="translate(-7) translate(0 112)"/>
        </g>
    </g>
</svg>
